<svg width="41" height="39" viewBox="0 0 41 39" fill="none" xmlns="http://www.w3.org/2000/svg">
<path fill-rule="evenodd" clip-rule="evenodd" d="M34.4515 15.6681C32.987 15.6686 31.5418 15.3334 30.2271 14.6881C28.9125 14.0428 27.7634 13.1047 26.8684 11.9459C25.9733 10.7872 25.3561 9.43863 25.0642 8.00405C24.7722 6.56946 24.8134 5.08705 25.1845 3.67087C22.4225 2.52071 19.4192 2.06939 16.4409 2.35693C13.4626 2.64446 10.6013 3.66196 8.11048 5.31924C5.61969 6.97653 3.57637 9.22242 2.16163 11.8579C0.746895 14.4933 0.00442071 17.4369 1.96802e-05 20.4278C-0.00438135 23.4187 0.729425 26.3644 2.1364 29.004C3.54338 31.6436 5.58008 33.8955 8.06598 35.5601C10.5519 37.2247 13.4102 38.2506 16.3877 38.5469C19.3651 38.8432 22.3697 38.4007 25.1351 37.2587C26.5305 36.7003 28.058 36.5587 29.5323 36.8511H29.5647L29.5956 36.8604L34.6044 38.1695C34.7842 38.217 34.9733 38.2166 35.1528 38.1682C35.3323 38.1198 35.496 38.0251 35.6274 37.8937C35.7589 37.7623 35.8536 37.5987 35.902 37.4193C35.9504 37.2398 35.9509 37.0508 35.9034 36.8712L34.6075 31.9154C34.5931 31.8619 34.5803 31.8105 34.5689 31.7611C34.2985 30.3 34.4424 28.7925 34.9844 27.409C36.5318 23.6564 36.7851 19.4956 35.7041 15.5831C35.2888 15.638 34.8704 15.6674 34.4515 15.6681ZM25.8348 20.454C25.8344 22.2252 25.2197 23.9415 24.0953 25.3105C22.971 26.6794 21.4065 27.6164 19.6685 27.9616C17.9305 28.3069 16.1266 28.0391 14.564 27.2039C13.0014 26.3687 11.7768 25.0177 11.099 23.3812C10.4211 21.7447 10.3319 19.9239 10.8465 18.2291C11.3612 16.5342 12.4478 15.0701 13.9213 14.0863C15.3948 13.1025 17.1639 12.6598 18.9274 12.8336C20.6908 13.0075 22.3393 13.7871 23.5921 15.0397C25.0277 16.475 25.8343 18.4213 25.8348 20.4509V20.454Z" fill="white"/>
<path d="M34.0911 13.6364C37.8567 13.6364 40.9093 10.5838 40.9093 6.81818C40.9093 3.0526 37.8567 0 34.0911 0C30.3256 0 27.2729 3.0526 27.2729 6.81818C27.2729 10.5838 30.3256 13.6364 34.0911 13.6364Z" fill="white"/>
</svg>
